<svg width="22" height="22" viewBox="0 0 22 22" fill="none" xmlns="http://www.w3.org/2000/svg">
<g clip-path="url(#clip0_682_3024)">
<path d="M20.7858 22.0001C21.4563 22.0001 22 21.4564 22 20.7859V1.21421C22 0.543555 21.4563 0 20.7858 0H1.21421C0.543469 0 0 0.543555 0 1.21421V20.7859C0 21.4564 0.543469 22.0001 1.21421 22.0001H20.7858Z" fill="#395185"/>
<path d="M15.1803 22.0001V13.4805H18.0401L18.4682 10.1603H15.1803V8.04038C15.1803 7.07908 15.4473 6.42398 16.8259 6.42398L18.5841 6.42321V3.45364C18.2799 3.41316 17.2362 3.32275 16.0221 3.32275C13.4871 3.32275 11.7517 4.87006 11.7517 7.71167V10.1603H8.88464V13.4805H11.7517V22.0001H15.1803Z" fill="#FDFDFF"/>
</g>
<defs>
<clipPath id="clip0_682_3024">
<rect width="22" height="22" fill="white"/>
</clipPath>
</defs>
</svg>
