<svg width="23" height="22" viewBox="0 0 23 22" fill="none" xmlns="http://www.w3.org/2000/svg">
<g clip-path="url(#clip0_682_3033)">
<path d="M17.0327 0H5.34521C2.4975 0 0.188965 2.30853 0.188965 5.15625V16.8438C0.188965 19.6915 2.4975 22 5.34521 22H17.0327C19.8804 22 22.189 19.6915 22.189 16.8438V5.15625C22.189 2.30853 19.8804 0 17.0327 0Z" fill="url(#paint0_radial_682_3033)"/>
<path d="M17.0327 0H5.34521C2.4975 0 0.188965 2.30853 0.188965 5.15625V16.8438C0.188965 19.6915 2.4975 22 5.34521 22H17.0327C19.8804 22 22.189 19.6915 22.189 16.8438V5.15625C22.189 2.30853 19.8804 0 17.0327 0Z" fill="url(#paint1_radial_682_3033)"/>
<path d="M11.1897 2.40625C8.85585 2.40625 8.56289 2.41648 7.64628 2.45816C6.73139 2.50009 6.10688 2.6449 5.56049 2.85742C4.99519 3.07691 4.51575 3.37055 4.03811 3.84837C3.56004 4.32609 3.26639 4.80554 3.04621 5.37058C2.83309 5.91714 2.68811 6.54191 2.64695 7.45637C2.60596 8.37306 2.59521 8.66611 2.59521 11.0001C2.59521 13.3341 2.60553 13.6261 2.64712 14.5427C2.68923 15.4576 2.83404 16.0821 3.04639 16.6285C3.26604 17.1938 3.55969 17.6732 4.0375 18.1509C4.51506 18.6289 4.9945 18.9233 5.55937 19.1427C6.10619 19.3553 6.73078 19.5001 7.6455 19.542C8.5622 19.5837 8.8549 19.5939 11.1887 19.5939C13.5229 19.5939 13.8149 19.5837 14.7315 19.542C15.6464 19.5001 16.2716 19.3553 16.8184 19.1427C17.3834 18.9233 17.8622 18.6289 18.3397 18.1509C18.8177 17.6732 19.1113 17.1938 19.3315 16.6287C19.5428 16.0821 19.6878 15.4574 19.7308 14.5429C19.772 13.6262 19.7827 13.3341 19.7827 11.0001C19.7827 8.66611 19.772 8.37323 19.7308 7.45654C19.6878 6.54165 19.5428 5.91723 19.3315 5.37084C19.1113 4.80554 18.8177 4.32609 18.3397 3.84837C17.8617 3.37038 17.3836 3.07673 16.8179 2.85751C16.27 2.6449 15.6452 2.50001 14.7303 2.45816C13.8136 2.41648 13.5217 2.40625 11.1871 2.40625H11.1897ZM10.4188 3.95493C10.6476 3.95459 10.903 3.95493 11.1897 3.95493C13.4844 3.95493 13.7563 3.96318 14.6624 4.00434C15.5003 4.04267 15.9551 4.18266 16.258 4.30031C16.6591 4.45603 16.945 4.64226 17.2456 4.94313C17.5464 5.24391 17.7325 5.53034 17.8887 5.93141C18.0063 6.23391 18.1465 6.68869 18.1846 7.52658C18.2258 8.43253 18.2347 8.70461 18.2347 10.9981C18.2347 13.2916 18.2258 13.5638 18.1846 14.4696C18.1463 15.3075 18.0063 15.7623 17.8887 16.0649C17.7329 16.466 17.5464 16.7515 17.2456 17.0521C16.9448 17.3529 16.6592 17.5391 16.258 17.6949C15.9554 17.813 15.5003 17.9527 14.6624 17.991C13.7564 18.0322 13.4844 18.0411 11.1897 18.0411C8.89504 18.0411 8.62304 18.0322 7.71718 17.991C6.87928 17.9523 6.4245 17.8124 6.12132 17.6947C5.72033 17.5389 5.43382 17.3528 5.13303 17.052C4.83225 16.7512 4.64611 16.4655 4.48996 16.0642C4.37232 15.7616 4.23215 15.3068 4.194 14.469C4.15283 13.563 4.14458 13.2909 4.14458 10.996C4.14458 8.70109 4.15283 8.43038 4.194 7.52443C4.23232 6.68654 4.37232 6.23176 4.48996 5.92883C4.64577 5.52776 4.83225 5.24133 5.13312 4.94055C5.4339 4.63977 5.72033 4.45354 6.1214 4.29748C6.42433 4.17931 6.87928 4.03966 7.71718 4.00116C8.50995 3.96533 8.81718 3.95459 10.4188 3.95278V3.95493ZM15.7771 5.38184C15.2077 5.38184 14.7458 5.84332 14.7458 6.41274C14.7458 6.98208 15.2077 7.44399 15.7771 7.44399C16.3464 7.44399 16.8083 6.98208 16.8083 6.41274C16.8083 5.84341 16.3464 5.38149 15.7771 5.38149V5.38184ZM11.1897 6.58677C8.75255 6.58677 6.7765 8.56281 6.7765 11.0001C6.7765 13.4374 8.75255 15.4125 11.1897 15.4125C13.627 15.4125 15.6024 13.4374 15.6024 11.0001C15.6024 8.5629 13.6268 6.58677 11.1896 6.58677H11.1897ZM11.1897 8.13545C12.7718 8.13545 14.0544 9.41789 14.0544 11.0001C14.0544 12.5821 12.7718 13.8647 11.1897 13.8647C9.60763 13.8647 8.32518 12.5821 8.32518 11.0001C8.32518 9.41789 9.60763 8.13545 11.1897 8.13545Z" fill="white"/>
</g>
<defs>
<radialGradient id="paint0_radial_682_3033" cx="0" cy="0" r="1" gradientUnits="userSpaceOnUse" gradientTransform="translate(6.03271 23.6944) rotate(-90) scale(21.8036 20.2791)">
<stop stop-color="#FFDD55"/>
<stop offset="0.1" stop-color="#FFDD55"/>
<stop offset="0.5" stop-color="#FF543E"/>
<stop offset="1" stop-color="#C837AB"/>
</radialGradient>
<radialGradient id="paint1_radial_682_3033" cx="0" cy="0" r="1" gradientUnits="userSpaceOnUse" gradientTransform="translate(-3.49612 1.58477) rotate(78.681) scale(9.74634 40.1747)">
<stop stop-color="#3771C8"/>
<stop offset="0.128" stop-color="#3771C8"/>
<stop offset="1" stop-color="#6600FF" stop-opacity="0"/>
</radialGradient>
<clipPath id="clip0_682_3033">
<rect width="22" height="22" fill="white" transform="translate(0.188965)"/>
</clipPath>
</defs>
</svg>
