<svg width="23" height="22" viewBox="0 0 23 22" fill="none" xmlns="http://www.w3.org/2000/svg">
<g clip-path="url(#clip0_682_3030)">
<rect x="2.12854" y="-0.000488281" width="18" height="22" fill="#FDFDFF"/>
<path d="M18.871 18.7439H15.6113V13.6389C15.6113 12.4216 15.5896 10.8546 13.9159 10.8546C12.2182 10.8546 11.9584 12.1809 11.9584 13.5503V18.7435H8.69876V8.24575H11.828V9.6804H11.8718C12.185 9.14492 12.6375 8.70441 13.1812 8.40578C13.725 8.10715 14.3395 7.96159 14.9594 7.98459C18.2633 7.98459 18.8724 10.1578 18.8724 12.9849L18.871 18.7439ZM5.02063 6.81086C3.97589 6.81103 3.1288 5.9642 3.12863 4.91946C3.12846 3.87472 3.9752 3.02763 5.01995 3.02746C6.06469 3.0272 6.91177 3.87403 6.91195 4.91877C6.91204 5.42048 6.71283 5.90167 6.35814 6.2565C6.00345 6.61134 5.52234 6.81074 5.02063 6.81086ZM6.65052 18.744H3.38739V8.24575H6.65044V18.7439L6.65052 18.744ZM20.4961 0.000136335H1.74942C0.863406 -0.00983242 0.136805 0.699925 0.125977 1.58594V20.4108C0.136461 21.2973 0.862977 22.0077 1.74934 21.9984H20.4961C21.3843 22.0094 22.1137 21.299 22.126 20.4108V1.58448C22.1133 0.696746 21.3839 -0.0129262 20.4961 -0.0013246" fill="#0A66C2"/>
</g>
<defs>
<clipPath id="clip0_682_3030">
<rect width="22" height="22" fill="white" transform="translate(0.125977)"/>
</clipPath>
</defs>
</svg>
