<svg width="23" height="22" viewBox="0 0 23 22" fill="none" xmlns="http://www.w3.org/2000/svg">
<rect x="0.0629883" width="22" height="22" rx="2.42192" fill="#55ACEE"/>
<path d="M19.0624 6.53842C18.4736 6.79943 17.841 6.97582 17.177 7.05518C17.8548 6.64902 18.3753 6.00585 18.6203 5.23952C17.976 5.6218 17.271 5.89114 16.5359 6.03591C15.9371 5.39811 15.084 4.99951 14.1398 4.99951C12.3269 4.99951 10.8571 6.46894 10.8571 8.28129C10.8571 8.53854 10.8862 8.78899 10.9421 9.02925C8.214 8.89234 5.79525 7.58581 4.17619 5.60025C3.89369 6.08496 3.73182 6.64877 3.73182 7.25014C3.73182 8.38876 4.31138 9.39323 5.19213 9.98178C4.67085 9.96546 4.16103 9.8247 3.70525 9.57125C3.70507 9.585 3.70507 9.59874 3.70507 9.61255C3.70507 11.2026 4.83657 12.5291 6.33819 12.8306C5.85481 12.962 5.34777 12.9813 4.85582 12.8868C5.2735 14.1907 6.48582 15.1395 7.92219 15.166C6.79875 16.0462 5.38332 16.5709 3.84544 16.5709C3.58044 16.5709 3.31919 16.5553 3.06238 16.525C4.51507 17.4562 6.2405 17.9995 8.09425 17.9995C14.1322 17.9995 17.4339 12.9987 17.4339 8.66189C17.4339 8.51955 17.4308 8.37801 17.4244 8.2373C18.067 7.77283 18.6217 7.19754 19.0624 6.53842Z" fill="#FDFDFF"/>
</svg>
